<?xml version="1.0" encoding="UTF-8" standalone="no"?>
<svg
   xmlns:dc="http://purl.org/dc/elements/1.1/"
   xmlns:cc="http://creativecommons.org/ns#"
   xmlns:rdf="http://www.w3.org/1999/02/22-rdf-syntax-ns#"
   xmlns:svg="http://www.w3.org/2000/svg"
   xmlns="http://www.w3.org/2000/svg"
   viewBox="0 0 93.603996 45.166134"
   height="45.166134"
   width="93.603996"
   xml:space="preserve"
   id="svg2"
   version="1.1"><metadata
     id="metadata8"><rdf:RDF><cc:Work
         rdf:about=""><dc:format>image/svg+xml</dc:format><dc:type
           rdf:resource="http://purl.org/dc/dcmitype/StillImage" /></cc:Work></rdf:RDF></metadata><defs
     id="defs6"><clipPath
       id="clipPath18"
       clipPathUnits="userSpaceOnUse"><path
         id="path16"
         d="M 0,33.875 H 70.203 V 0 H 0 Z" /></clipPath></defs><g
     transform="matrix(1.3333333,0,0,-1.3333333,0,45.166133)"
     id="g10"><g
       id="g12"><g
         clip-path="url(#clipPath18)"
         id="g14"><g
           transform="translate(0.1189,4.4693)"
           id="g20"><path
             id="path22"
             style="fill:#000000;fill-opacity:1;fill-rule:nonzero;stroke:none"
             d="m 0,0 c 0,0 0.277,0.02 0.796,0.057 0.519,0.031 1.275,0.112 2.257,0.115 0.982,0.025 2.172,0.029 3.54,-0.084 1.367,-0.098 2.921,-0.302 4.561,-0.631 1.645,-0.313 3.366,-0.661 5.191,-0.883 1.827,-0.223 3.775,-0.281 5.803,-0.297 0.501,0.005 1.033,-0.011 1.52,0.011 0.526,0.016 1.055,0.032 1.588,0.049 1.03,0.061 2.057,0.126 3.108,0.224 2.096,0.187 4.143,0.615 6.283,1.138 2.157,0.5 4.456,0.944 6.699,1.109 2.246,0.202 4.44,0.15 6.543,0.059 2.091,-0.083 4.187,-0.319 6.096,-0.694 1.93,-0.359 3.691,-0.908 5.264,-1.382 1.578,-0.468 3.009,-0.85 4.31,-1.119 1.299,-0.264 2.45,-0.455 3.404,-0.578 0.953,-0.134 1.708,-0.223 2.224,-0.281 l 0.791,-0.093 c 0.064,-0.005 0.111,-0.061 0.106,-0.125 -0.005,-0.057 -0.053,-0.101 -0.108,-0.107 0,0 -0.277,-0.02 -0.797,-0.057 -0.52,-0.032 -1.284,-0.113 -2.261,-0.117 -0.976,-0.026 -2.169,-0.03 -3.537,0.081 -1.366,0.097 -2.92,0.301 -4.56,0.629 -1.645,0.311 -3.367,0.66 -5.192,0.882 -1.843,0.22 -3.75,0.279 -5.8,0.295 C 45.793,-1.78 43.697,-1.893 41.61,-2.083 39.514,-2.27 37.467,-2.7 35.327,-3.221 33.169,-3.719 30.871,-4.166 28.628,-4.332 27.512,-4.433 26.382,-4.46 25.282,-4.469 c -0.533,0.007 -1.063,0.014 -1.589,0.021 -0.565,0 -1.078,0.039 -1.612,0.057 -2.113,0.084 -4.167,0.319 -6.092,0.693 -1.931,0.358 -3.692,0.908 -5.265,1.38 -1.578,0.467 -3.009,0.849 -4.31,1.117 -1.298,0.262 -2.452,0.453 -3.401,0.575 -0.947,0.133 -1.711,0.223 -2.227,0.28 -0.516,0.06 -0.792,0.092 -0.792,0.092 -0.07,0.008 -0.12,0.071 -0.112,0.141 C -0.111,-0.051 -0.06,-0.004 0,0" /></g><g
           transform="translate(52.9157,12.9321)"
           id="g24"><path
             id="path26"
             style="fill:#000000;fill-opacity:1;fill-rule:nonzero;stroke:none"
             d="m 0,0 c 0,0 -0.794,1.476 -0.312,5.647 0.482,4.171 -0.156,7.604 -0.156,7.604 0,0 0.638,0.17 0.582,-2.497 -0.057,-2.667 -0.142,-5.448 -0.142,-5.448 0,0 0.12,-2.667 0.145,-3.518 C 0.142,0.936 0,0 0,0 m -26.156,-10.15 c -0.18,0.298 0.072,2.496 0.03,3.007 -0.043,0.51 -0.021,1.447 -0.021,1.447 0,0 0,0.489 0.106,0.681 0.106,0.191 0.278,0.51 0.331,0.638 0.052,0.128 0.244,0.724 0.18,0.937 -0.064,0.212 -0.081,0.638 0.013,1 0.093,0.362 0.221,1.128 0.157,1.319 l 0.149,1.213 c 0,0 0.766,0.256 1.341,0.49 0.574,0.234 1.149,0.298 1.851,0.234 0.702,-0.064 2.022,-0.405 2.022,-0.405 0,0 1.064,-0.361 1.745,-0.532 0.681,-0.17 1.021,-0.127 1.83,-1.042 0.809,-0.915 1.341,-1.064 1.809,-0.809 0.468,0.255 1.49,1.021 1.49,1.021 l 0.51,-0.042 c 0,0 0.426,-0.447 0.894,-0.724 0.468,-0.276 0.49,-0.553 0.49,-0.553 0,0 0.127,-0.298 0.404,-0.511 0.277,-0.213 0.192,-0.851 0.192,-0.851 0,0 -0.064,-0.575 0.361,-0.617 0.426,-0.043 0.405,0.617 0.405,0.617 0,0 0.042,0.468 0.383,0.745 0,0 0.276,-0.319 0.574,-0.49 0.298,-0.17 -0.163,-0.876 0.328,-1.098 0.476,-0.19 0.404,0.543 0.809,0.777 0,0 0.417,-1.828 0.247,-2.956 -0.171,-1.128 -0.341,-1.617 -0.341,-1.617 0,0 -0.255,-0.873 -0.255,-1.043 l 2.192,0.958 c 0.212,0.766 1.106,4.426 1.106,4.426 0,0 0.234,0.809 0.405,1 0.17,0.192 0.212,0.532 0.212,0.532 0,0 0.596,0.362 0.767,0.532 0,0 0.297,-0.744 0.553,-1.128 0.255,-0.383 0.383,-1.042 0.383,-1.042 0,0 0.234,-0.809 0.404,-1.192 0.171,-0.383 0.234,-1.064 0.213,-1.511 -0.021,-0.447 -0.106,-1.809 -0.213,-2.086 -0.106,-0.276 -0.191,-0.638 -0.191,-0.957 l 2.411,0.979 c 0.113,0.681 0.334,5.313 0.476,5.597 0.142,0.283 0.596,0.539 0.369,1.248 -0.227,0.71 -0.341,2.561 -0.341,2.561 -0.042,0.468 0,4.448 0.107,5.044 0.106,0.595 0.255,4.064 0.255,4.064 0,0 0.362,2.66 0.064,3.363 -0.298,0.702 -0.809,1.298 -0.894,1.468 -0.085,0.17 -0.83,0.83 -1.256,1.086 -0.425,0.255 -1.149,0.297 -1.383,0.446 -0.234,0.149 -1.213,0.298 -1.66,0.298 -0.447,0 -1.979,0.213 -2.319,0.447 -0.341,0.234 -0.554,0.426 -1.192,0.362 -0.639,-0.064 -1.937,-0.489 -2.639,-0.511 -0.702,-0.021 -1.405,0.064 -1.894,-0.106 -0.489,-0.17 -1.426,-0.17 -2.043,-0.149 -0.617,0.021 -0.851,-0.085 -1.149,-0.106 -0.298,-0.022 -1.916,-0.171 -3.065,-0.192 -1.149,-0.021 -2.064,0 -2.213,-0.043 -0.149,-0.042 -2.022,0.277 -2.447,0.49 -0.426,0.213 -1.511,0.574 -2.043,0.702 -0.532,0.128 -1.596,0.234 -1.809,0.341 -0.213,0.106 -0.617,0.106 -1,0.106 -0.383,0 -1.745,0.213 -1.98,0.255 -0.196,0.036 -0.862,0.117 -1.768,-0.16 -0.576,-0.177 -1.181,-0.276 -1.782,-0.226 -0.266,0.022 -0.531,0.067 -0.748,0.152 -0.724,0.284 -1.48,0.64 -1.646,0.752 -0.152,0.103 -0.511,0.468 -0.511,0.468 0,0 -0.284,0.327 -0.34,0.369 l -0.057,0.043 v 0.369 c 0,0 0,0.198 -0.341,0.496 -0.34,0.298 -0.851,0.568 -0.851,0.568 0,0 -0.397,0.255 -1.149,0.085 -0.752,-0.17 -1.986,-0.454 -2.44,-0.653 -0.454,-0.198 -1.249,-0.581 -1.447,-1.362 0,0 -0.894,0.085 -1.887,-0.51 -0.993,-0.596 -1.249,-1.079 -1.192,-1.731 0,0 0.042,-0.241 0.184,-0.241 0.142,0 0.759,0.134 2.036,0.049 0,0 -0.234,-0.372 -0.542,-0.564 -0.309,-0.191 -0.522,-0.276 -0.628,-0.404 -0.107,-0.128 -0.202,-0.213 -0.181,-0.319 0.021,-0.107 0.049,-0.229 0.042,-0.33 -0.032,-0.524 0.118,-0.915 0.118,-0.915 0.141,-0.085 0.219,-0.539 0.205,-0.653 -0.014,-0.113 -0.035,-0.965 0.646,-1.007 0.681,-0.043 1.149,0.213 1.596,0.149 0.447,-0.064 0.596,-0.256 0.979,-0.426 0.383,-0.17 0.638,-0.106 1.149,-0.638 0.511,-0.532 1.316,-0.873 1.316,-0.873 0,0 0.45,-0.234 0.727,-0.745 0.277,-0.51 0.532,-0.723 0.681,-1.191 0.149,-0.469 0.915,-3.171 1.426,-4.15 0.511,-0.979 0.723,-0.809 1.085,-1.277 0.362,-0.468 1.383,-1.277 1.66,-1.83 0.277,-0.554 0.915,-0.788 1.171,-1.426 0.255,-0.639 1.808,-1.681 2.553,-1.405 l 0.468,0.171 c 0,0 0.341,-0.809 0.341,-1.362 0,-0.554 0.043,-0.83 0.192,-1.426 0.148,-0.596 0.532,-1.405 0.425,-2.171 -0.106,-0.766 -0.021,-1.256 -0.234,-1.851 -0.213,-0.596 -0.064,-0.788 -0.298,-1.192 -0.234,-0.405 -0.702,-1.277 -0.702,-1.277 l -0.192,-0.213 c 0,0 -0.255,-0.213 0.383,-0.234 0.639,-0.021 1.447,0.064 1.745,0.128 0.298,0.064 0.469,0.17 1.001,0.042 0.532,-0.127 1.042,0.022 0.957,0.277 z" /></g></g></g></g></svg>