<?xml version="1.0" encoding="UTF-8" standalone="no"?>
<svg
   xmlns:dc="http://purl.org/dc/elements/1.1/"
   xmlns:cc="http://creativecommons.org/ns#"
   xmlns:rdf="http://www.w3.org/1999/02/22-rdf-syntax-ns#"
   xmlns:svg="http://www.w3.org/2000/svg"
   xmlns="http://www.w3.org/2000/svg"
   viewBox="0 0 93.603996 46.259998"
   height="46.259998"
   width="93.603996"
   xml:space="preserve"
   id="svg2"
   version="1.1"><metadata
     id="metadata8"><rdf:RDF><cc:Work
         rdf:about=""><dc:format>image/svg+xml</dc:format><dc:type
           rdf:resource="http://purl.org/dc/dcmitype/StillImage" /></cc:Work></rdf:RDF></metadata><defs
     id="defs6"><clipPath
       id="clipPath18"
       clipPathUnits="userSpaceOnUse"><path
         id="path16"
         d="M 0,34.695 H 70.203 V 0 H 0 Z" /></clipPath></defs><g
     transform="matrix(1.3333333,0,0,-1.3333333,0,46.26)"
     id="g10"><g
       id="g12"><g
         clip-path="url(#clipPath18)"
         id="g14"><g
           transform="translate(21.9619,1.0413)"
           id="g20"><path
             id="path22"
             style="fill:#000000;fill-opacity:1;fill-rule:nonzero;stroke:none"
             d="M 0,0 C 0.107,0 0.209,0.048 0.276,0.131 L 1.02,1.045 c 0.117,0 0.212,0.094 0.21,0.211 C 1.228,1.363 1.096,1.509 1.107,1.683 1.131,2.078 1.074,4.026 1.172,4.224 1.271,4.421 1.32,4.643 1.394,4.816 1.468,4.988 1.567,5.26 1.838,5.704 2.11,6.148 2.085,6.567 2.085,6.567 L 1.977,9.241 -1.797,9.587 c 0.123,0 0.429,-2.478 0.38,-2.922 C -1.467,6.222 -0.949,5.457 -0.801,4.742 -0.653,4.026 -0.845,2.053 -0.894,1.856 -0.929,1.719 -1.072,1.573 -1.14,1.379 -1.165,1.31 -1.422,1.017 -1.422,1.017 m 36.893,11.012 c -0.13,-0.37 -0.629,-0.925 -0.481,-1.406 0,0 -0.888,1.554 -0.629,2.849 0.259,1.295 1.073,3.033 1.221,4.421 0,0 0.129,-2.59 0.092,-3.644 -0.037,-1.055 -0.074,-1.85 -0.203,-2.22 M 31.26,3.236 c 0,0 0.296,1.233 0.37,3.009 0.074,1.776 0.419,1.801 0.419,1.801 0,0 0.345,0.172 0.493,-0.494 0.148,-0.666 0.617,-1.356 0.617,-1.356 0,0 0.37,-0.962 0.616,-1.702 0.247,-0.74 0.124,-1.677 0.074,-2.022 m 2.404,-0.231 -0.727,5.41 c 0,0 0.247,-0.049 0.568,0 0.32,0.049 0.074,0.567 0.049,0.814 -0.025,0.247 0.074,0.74 0.197,1.48 0.124,0.74 0.074,1.048 -0.147,1.418 -0.221,0.37 -0.223,0.999 -0.075,2.997 0.148,1.997 0.037,4.106 0,5.956 -0.037,1.85 -0.666,4.884 -1.664,5.919 -0.999,1.036 -3.108,2.183 -3.478,2.196 -0.37,0.014 -2.738,0.542 -2.738,0.542 0,0 -1.48,0.37 -2.479,0.333 -0.998,-0.037 -2.256,-0.518 -2.959,-0.518 -0.703,0 -5.821,-0.78 -5.821,-0.78 -7.251,-1.292 -8.386,0.583 -8.386,0.583 0.009,0.009 0.018,0.019 0.026,0.029 0.804,0.893 0.89,2.222 0.259,3.245 -0.606,0.983 -1.862,2.101 -4.379,1.708 -4.267,-0.666 -5.303,-3.132 -5.303,-3.132 -1.258,-1.825 -2.811,-1.283 -3.255,-1.233 -0.444,0.049 -2.492,0.468 -2.27,1.06 0.222,0.592 2.492,1.998 2.492,1.998 0,0 0.542,0.32 -0.099,0.542 -0.641,0.222 -2.294,-0.444 -2.541,-0.58 -0.246,-0.136 -0.986,-0.431 -1.134,-0.431 -0.148,0 -0.617,-0.074 -0.913,-0.148 -0.239,-0.06 -0.754,-0.023 -0.941,-0.006 -0.045,0.004 -0.085,0.021 -0.119,0.05 -0.141,0.123 -0.564,0.463 -0.987,0.524 -0.518,0.073 -0.962,-0.222 -1.11,-0.395 -0.148,-0.173 -0.172,-0.419 0,-0.444 0.173,-0.025 0.37,-0.321 0.37,-0.321 -0.799,-0.409 -1.383,-1.374 -1.592,-1.76 -0.05,-0.091 -0.153,-0.134 -0.255,-0.108 -0.437,0.108 -1.2,0.119 -1.319,0.12 -0.011,0 -0.02,-0.001 -0.031,-0.003 -0.136,-0.027 -1.11,-0.236 -1.637,-0.74 -0.567,-0.542 0.123,-0.937 0.123,-0.937 0,0 0.444,0 0.938,-0.321 0.378,-0.246 1.366,-0.492 1.806,-0.593 0.139,-0.032 0.21,-0.182 0.153,-0.313 -0.246,-0.556 -1.094,-1.656 -1.318,-1.881 -0.253,-0.255 -0.395,-0.599 -0.395,-0.958 v -0.62 c 0,-0.444 0.173,-0.543 1.036,-1.085 0.863,-0.543 1.283,-0.222 1.505,-0.173 0.204,0.045 0.428,-0.388 0.464,-0.459 0.003,-0.007 0.007,-0.013 0.012,-0.02 0.048,-0.068 0.333,-0.47 0.782,-1.075 0.336,-0.453 0.706,-1.238 0.908,-1.693 0.095,-0.214 0.235,-0.403 0.405,-0.565 0.114,-0.108 0.263,-0.264 0.438,-0.48 0.13,-0.161 0.28,-0.246 0.424,-0.286 0.528,-0.147 0.92,-0.588 1.088,-1.11 0.125,-0.385 0.26,-0.877 0.387,-1.489 0.395,-1.899 1.06,-3.947 1.48,-4.095 C -5.49,10.265 -4.602,9.55 -4.479,9.304 -4.355,9.057 -3.27,8.514 -2.654,8.49 -2.037,8.465 -1.889,7.972 -1.568,7.725 -1.248,7.478 1.515,7.824 1.638,7.824 1.761,7.824 1.589,6.763 1.539,6.319 1.49,5.875 2.008,5.111 2.156,4.395 2.304,3.68 1.882,1.707 1.832,1.51 1.798,1.372 1.655,1.227 1.586,1.033 1.562,0.964 1.305,0.671 1.305,0.671 l -0.6,-0.673 C 0.587,-0.135 0.681,-0.346 0.86,-0.346 h 1.867 c 0.107,0 0.208,0.048 0.276,0.131 l 0.744,0.914 c 0.117,0 0.211,0.093 0.209,0.211 -0.002,0.107 -0.134,0.252 -0.123,0.427 0.025,0.395 0.197,2.343 0.296,2.54 0.099,0.198 0.148,0.42 0.222,0.592 0.074,0.173 0.173,0.444 0.444,0.888 0.271,0.444 0.247,0.864 0.247,0.864 0,0 -0.173,0.69 0.172,1.159 0.171,0.232 0.36,0.705 0.507,1.124 0.142,0.403 0.392,0.77 0.747,1.007 0.113,0.076 0.201,0.171 0.201,0.286 0,0.032 0.003,0.064 0.009,0.096 0.055,0.335 0.335,0.586 0.665,0.661 0.84,0.192 2.945,0.605 4.901,0.451 2.515,-0.197 3.231,-1.849 3.502,-2.392 0.271,-0.543 0.641,-0.395 0.863,-0.247 0.222,0.148 0.543,0.025 0.789,0 0.247,-0.024 -0.049,-0.641 -0.074,-0.962 -0.024,-0.32 0.691,-0.518 1.036,0.148 0.199,0.384 0.513,0.784 0.743,1.054 0.177,0.209 0.389,0.382 0.627,0.517 1.271,0.722 5.762,3.274 6.079,3.486 0.37,0.246 0.419,0 0.419,0 l 0.271,-1.431 c 0.05,-0.321 0.025,-0.839 -0.148,-1.11 -0.172,-0.271 -0.172,-0.616 -0.197,-1.184 -0.025,-0.567 0.814,-1.48 1.455,-1.578 0.642,-0.099 0.568,1.406 0.568,1.406 0,0 0.148,-0.173 0.419,-0.346 0.271,-0.172 0.271,-0.592 0.32,-1.085 0.05,-0.493 0.296,-0.912 0.444,-1.628 0.148,-0.715 -0.123,-2.269 -0.222,-2.466" /></g><g
           transform="translate(0.1189,4.4693)"
           id="g24"><path
             id="path26"
             style="fill:#000000;fill-opacity:1;fill-rule:nonzero;stroke:none"
             d="m 0,0 c 0,0 0.277,0.02 0.796,0.057 0.519,0.031 1.275,0.112 2.257,0.115 0.982,0.025 2.172,0.029 3.54,-0.084 1.367,-0.098 2.921,-0.302 4.561,-0.631 1.645,-0.313 3.366,-0.661 5.191,-0.883 1.827,-0.223 3.775,-0.281 5.803,-0.297 0.501,0.005 1.033,-0.011 1.52,0.011 0.526,0.016 1.055,0.032 1.588,0.049 1.03,0.061 2.057,0.126 3.108,0.224 2.096,0.187 4.143,0.615 6.283,1.138 2.157,0.5 4.456,0.944 6.699,1.109 2.246,0.202 4.44,0.15 6.543,0.059 2.091,-0.083 4.187,-0.319 6.096,-0.694 1.93,-0.359 3.691,-0.908 5.264,-1.382 1.578,-0.468 3.009,-0.85 4.31,-1.119 1.299,-0.264 2.45,-0.455 3.404,-0.578 0.953,-0.134 1.708,-0.223 2.224,-0.281 l 0.791,-0.093 c 0.064,-0.005 0.111,-0.061 0.106,-0.125 -0.005,-0.057 -0.053,-0.101 -0.108,-0.107 0,0 -0.277,-0.02 -0.797,-0.057 -0.52,-0.032 -1.284,-0.113 -2.261,-0.117 -0.976,-0.026 -2.169,-0.03 -3.537,0.081 -1.366,0.097 -2.92,0.301 -4.56,0.629 -1.645,0.311 -3.367,0.66 -5.192,0.882 -1.843,0.22 -3.75,0.279 -5.8,0.295 C 45.793,-1.78 43.697,-1.893 41.61,-2.083 39.514,-2.27 37.467,-2.7 35.327,-3.221 33.169,-3.719 30.871,-4.166 28.628,-4.332 27.512,-4.433 26.382,-4.46 25.282,-4.469 c -0.533,0.007 -1.063,0.014 -1.589,0.021 -0.565,0 -1.078,0.039 -1.612,0.057 -2.113,0.084 -4.167,0.319 -6.092,0.693 -1.931,0.358 -3.692,0.908 -5.265,1.38 -1.578,0.467 -3.009,0.849 -4.31,1.117 -1.298,0.262 -2.452,0.453 -3.401,0.575 -0.947,0.133 -1.711,0.223 -2.227,0.28 -0.516,0.06 -0.792,0.092 -0.792,0.092 -0.07,0.008 -0.12,0.071 -0.112,0.141 C -0.111,-0.051 -0.06,-0.004 0,0" /></g></g></g></g></svg>