<svg fill="rgba(0, 0, 0, .2)" id="Layer_1" data-name="Layer 1" xmlns="http://www.w3.org/2000/svg" viewBox="0 0 476.52 381.33"><path d="M1570.09,766V498.93a18.54,18.54,0,0,0-.28-3.15v-.08a58.6,58.6,0,0,0-6.54-23.62,52.12,52.12,0,0,0-11.79-15.29l-.11-.1a48.94,48.94,0,0,0-13.2-8.95q-1.62-.72-3.24-1.35a57.25,57.25,0,0,0-18.45-4.27h-.22c-.43,0-.85-.05-1.28-.06l-.36,0c-.51,0-1,0-1.52,0H1151.52a63.71,63.71,0,0,0-14.51,1.53l-.23.05c-20.59,4.42-38.28,22.77-41.94,43.56a60.87,60.87,0,0,0-1.17,14.53v279a43.8,43.8,0,0,0,1.78,13.88c5.74,16.92,20.84,28.57,38.94,28.77,3.35.05,6.66,0,10,0h384.26c8.23,0,17-2.19,23.64-7.22,8.18-6.15,15-14.54,16.82-24.91a54,54,0,0,0,1-9C1570.14,776.74,1570.09,771.41,1570.09,766Zm-230.23-96.57h0c-.19.14-.38.3-.58.44Zm.06,0h0l.64-.49C1340.34,669.1,1340.13,669.26,1339.92,669.42Zm2.17-1.81a40.19,40.19,0,0,1-4.27,2.56,42.2,42.2,0,0,1-4.18,1.13,38.11,38.11,0,0,1-4,0,37.57,37.57,0,0,1-4-1.09,38.52,38.52,0,0,1-4.52-2.7c-5.74-4.7-11.2-9.77-16.79-14.59q-22-19-44-38l-53.48-46.16q-22.65-19.51-45.3-39.09c-6.86-6-13.82-11.85-20.63-17.84a42.9,42.9,0,0,1-3.65-3.61,39.21,39.21,0,0,1-2-3.44,39.41,39.41,0,0,1-1-3.87.71.71,0,0,1,0-.14c0-.55,0-1.1,0-1.65,0-.77,0-1.55.08-2.32a38.12,38.12,0,0,1,1.17-4.31,37.61,37.61,0,0,1,2.29-3.93c.87-1,1.78-1.87,2.75-2.75a36.94,36.94,0,0,1,3.45-2,38.84,38.84,0,0,1,3.84-1c2-.12,4-.15,6-.15,1.75,0,3.5,0,5.23,0h353.81c.88,0,1.74,0,2.6.07a40,40,0,0,1,4.17,1.1,35.33,35.33,0,0,1,3.41,2q1.41,1.28,2.7,2.7a41.42,41.42,0,0,1,2.34,4c.44,1.33.81,2.68,1.12,4.06,0,.78.08,1.57.08,2.36,0,.57,0,1.13,0,1.69a38.72,38.72,0,0,1-1.1,4.1,39.07,39.07,0,0,1-2,3.48,87,87,0,0,1-7.38,6.84c-4.22,3.66-8.49,7.32-12.71,11q-21.59,18.67-43.21,37.31l-53.43,46.11-45.95,39.7C1356.28,655.34,1349.21,661.47,1342.09,667.61Zm177.22,115H1134.45l-.07,0-.08,0a.36.36,0,0,1,0-.09c0-.05,0-.1,0-.16-.07-2.27,0-4.58,0-6.81V559.6L1155,577.52q25.38,21.88,50.78,43.82,25,21.58,50.07,43.21c10.93,9.46,21.86,18.86,32.79,28.32,1.68,1.42,3.3,2.9,5,4.27a61.32,61.32,0,0,0,16.06,10.16,60.48,60.48,0,0,0,18.76,4.48,56.24,56.24,0,0,0,33-8.29c8.85-5.64,16.73-13.57,24.61-20.38q21.12-18.23,42.24-36.5l52.46-45.29,46.06-39.81,2.49-2.15V748.89c0,11.13,0,22.26,0,33.4v.08s0,0,0,.07l0,.09-.08,0-.25.06C1525.68,782.76,1522.42,782.59,1519.31,782.59Z" transform="translate(-1093.59 -442)"/></svg>